<svg xmlns="http://www.w3.org/2000/svg" version="1.1" xmlns:xlink="http://www.w3.org/1999/xlink" xmlns:svgjs="http://svgjs.dev/svgjs" width="128" height="128" viewBox="0 0 128 128"><g transform="matrix(0.8046875,0,0,0.8046875,12.760752631578946,19.162007057783768)"><svg viewBox="0 0 95 83" data-background-color="#ffffff" preserveAspectRatio="xMidYMid meet" height="111" width="128" xmlns="http://www.w3.org/2000/svg" xmlns:xlink="http://www.w3.org/1999/xlink"><g id="tight-bounds" transform="matrix(1,0,0,1,-0.24049999999999727,0.16525295356470338)"><svg viewBox="0 0 95.48100000000001 82.6694940928706" height="82.6694940928706" width="95.48100000000001"><g><svg viewBox="0 0 95.48100000000001 82.6694940928706" height="82.6694940928706" width="95.48100000000001"><g><svg viewBox="0 0 95.48100000000001 82.6694940928706" height="82.6694940928706" width="95.48100000000001"><g id="textblocktransform"><svg viewBox="0 0 95.48100000000001 82.6694940928706" height="82.6694940928706" width="95.48100000000001" id="textblock"><g><svg viewBox="0 0 95.48100000000001 82.6694940928706" height="82.6694940928706" width="95.48100000000001"><g><svg viewBox="0 0 95.48100000000001 82.6694940928706" height="82.6694940928706" width="95.48100000000001"><g><svg xmlns="http://www.w3.org/2000/svg" xmlns:xlink="http://www.w3.org/1999/xlink" version="1.1" x="0" y="0" viewBox="1.5999999999999996 9 95.40073622732076 82.6" style="enable-background:new 0 0 100 100;" xml:space="preserve" height="82.6694940928706" width="95.48100000000001" class="icon-icon-0" data-fill-palette-color="accent" id="icon-0"><path d="M48.2 69.1c0-14.5 11.8-26.3 26.3-26.3 6.6 0 12.6 2.4 17.3 6.5V26.8c0-2.9-2.3-5.2-5.2-5.2H66.5v-3.1c0-5.3-4.3-9.5-9.5-9.5H36.3c-5.3 0-9.5 4.3-9.5 9.5v3.1H6.8c-2.9 0-5.2 2.3-5.2 5.2v56.6c0 2.9 2.3 5.2 5.2 5.2h50C51.6 83.7 48.2 76.8 48.2 69.1zM32.6 18.5c0-2 1.7-3.7 3.7-3.7H57c2 0 3.7 1.7 3.7 3.7v3.1H32.6V18.5z" fill="#e63946" data-fill-palette-color="accent"></path><path d="M74.6 46.5C62.1 46.5 52 56.6 52 69.1c0 12.4 10.1 22.5 22.5 22.5 12.4 0 22.5-10.1 22.5-22.5C97.1 56.6 87 46.5 74.6 46.5zM57.8 69.2c-0.1-0.1-0.1-0.2-0.1-0.3 0-0.1 0.1-0.2 0.2-0.3l1-0.7c0.1-0.1 0.2-0.1 0.3-0.1l4.4 1.1c0.2 0 0.3 0.2 0.3 0.3 0 0.2-0.1 0.3-0.3 0.4l-3.4 1.1c0 0-0.1 0-0.1 0-0.1 0-0.2 0-0.2-0.1L57.8 69.2zM62.5 74.6l-2.4 0.8c0 0-0.1 0-0.1 0-0.2 0-0.3-0.1-0.4-0.3-0.1-0.2 0-0.4 0.2-0.5l2.4-0.8c0.2-0.1 0.4 0 0.5 0.2C62.8 74.3 62.7 74.5 62.5 74.6zM65.8 75l-2.4 0.8c0 0-0.1 0-0.1 0-0.2 0-0.3-0.1-0.4-0.3-0.1-0.2 0-0.4 0.2-0.5l2.4-0.8c0.2-0.1 0.4 0 0.5 0.2C66.1 74.7 66 74.9 65.8 75zM89.9 66.8l-0.2 0.1c0 0 0 0 0 0l-20.8 7c0 0-0.1 0-0.1 0 0 0-0.1 0-0.1 0l-7.3-1.6c-0.2 0-0.3-0.2-0.3-0.3 0-0.2 0.1-0.3 0.3-0.4l11.1-3.7-4-3.9c-0.1-0.1-0.1-0.2-0.1-0.3 0-0.1 0.1-0.2 0.1-0.3l1.2-1c0.1-0.1 0.2-0.1 0.3-0.1L81 65l7.2-2.4c0 0 0 0 0 0l0.2-0.1c0.2-0.1 0.5-0.1 0.7-0.1 1 0 1.8 0.6 2.2 1.6 0.2 0.6 0.2 1.2-0.1 1.7C91 66.2 90.5 66.6 89.9 66.8z" fill="#e63946" data-fill-palette-color="accent"></path></svg></g></svg></g></svg></g></svg></g></svg></g></svg></g><defs></defs></svg><rect width="95.48100000000001" height="82.6694940928706" fill="none" stroke="none" visibility="hidden"></rect></g></svg></g></svg>