<svg xmlns="http://www.w3.org/2000/svg" version="1.1" xmlns:xlink="http://www.w3.org/1999/xlink" xmlns:svgjs="http://svgjs.dev/svgjs" width="2000" height="494" viewBox="0 0 2000 494"><g transform="matrix(1,0,0,1,-1.2121200741660232,-1.0701866675918552)"><svg viewBox="0 0 396 98" data-background-color="#ffffff" preserveAspectRatio="xMidYMid meet" height="494" width="2000" xmlns="http://www.w3.org/2000/svg" xmlns:xlink="http://www.w3.org/1999/xlink"><g id="tight-bounds" transform="matrix(1,0,0,1,0.24000022531510012,0.2123042377004083)"><svg viewBox="0 0 395.52 97.57538746892709" height="97.57538746892709" width="395.52"><g><svg viewBox="0 0 587.7628582649829 145.00199391952313" height="97.57538746892709" width="395.52"><g transform="matrix(1,0,0,1,192.24285826498297,20.040072965722814)"><svg viewBox="0 0 395.52 104.9218479880775" height="104.9218479880775" width="395.52"><g id="textblocktransform"><svg viewBox="0 0 395.52 104.9218479880775" height="104.9218479880775" width="395.52" id="textblock"><g><svg viewBox="0 0 395.52 104.9218479880775" height="104.9218479880775" width="395.52"><g transform="matrix(1,0,0,1,0,0)"><svg width="395.52" viewBox="1.25 -35 134.19000244140625 35.599998474121094" height="104.9218479880775" data-palette-color="#e63946"><path d="M5.65-31.55L10.5-31.55 10.5-6.95Q10.5-5.25 11.23-4.53 11.95-3.8 13.7-3.8L13.7-3.8 17.3-3.8 17.85-0.25Q17 0 15.93 0.15 14.85 0.3 13.78 0.38 12.7 0.45 12.05 0.45L12.05 0.45Q8.95 0.45 7.3-1.25 5.65-2.95 5.65-6.15L5.65-6.15 5.65-31.55ZM6.05-24.4L18.1-24.4 18.1-20.8 1.25-20.8 1.25-24.15 6.05-24.4ZM23.05-24.4L26.8-24.4 27.4-19.7 27.85-19 27.85 0 23.05 0 23.05-24.4ZM37.65-25L38.75-25 38.25-20.5 36.7-20.5Q34.65-20.5 32.52-19.7 30.4-18.9 27.35-17.4L27.35-17.4 27-20.35Q29.65-22.55 32.37-23.78 35.1-25 37.65-25L37.65-25ZM55.05-25L55.05-25Q57.84-25 59.77-24.28 61.7-23.55 62.67-21.8 63.65-20.05 63.65-17L63.65-17 63.65 0 59.84 0 59.09-5.3 58.8-5.9 58.8-17Q58.8-19.15 57.8-20.1 56.8-21.05 54-21.05L54-21.05Q52.09-21.05 49.22-20.85 46.34-20.65 43.55-20.45L43.55-20.45 43.09-23.9Q44.8-24.2 46.87-24.45 48.95-24.7 51.09-24.85 53.25-25 55.05-25ZM48.84-15.05L61.45-15.05 61.4-11.65 49.9-11.6Q48.2-11.55 47.52-10.73 46.84-9.9 46.84-8.45L46.84-8.45 46.84-6.95Q46.84-5.15 47.72-4.33 48.59-3.5 50.5-3.5L50.5-3.5Q51.9-3.5 53.62-4.03 55.34-4.55 57.09-5.63 58.84-6.7 60.25-8.35L60.25-8.35 60.25-5.2Q59.75-4.5 58.75-3.53 57.75-2.55 56.32-1.65 54.9-0.75 53.17-0.15 51.45 0.45 49.4 0.45L49.4 0.45Q47.2 0.45 45.52-0.33 43.84-1.1 42.9-2.63 41.95-4.15 41.95-6.35L41.95-6.35 41.95-9Q41.95-11.85 43.77-13.45 45.59-15.05 48.84-15.05L48.84-15.05ZM87.99-24.4L93.14-24.4 84.39-1.2Q84.14-0.65 83.72-0.33 83.29 0 82.69 0L82.69 0 78.39 0Q77.79 0 77.37-0.33 76.94-0.65 76.69-1.2L76.69-1.2 67.94-24.4 73.09-24.4 78.84-7.65Q79.24-6.6 79.57-5.5 79.89-4.4 80.19-3.35L80.19-3.35 80.84-3.35Q81.24-4.45 81.59-5.53 81.94-6.6 82.29-7.65L82.29-7.65 87.99-24.4ZM107.69-25L107.69-25Q113.34-25 115.87-22.98 118.39-20.95 118.39-17L118.39-17Q118.44-13.7 116.97-11.9 115.49-10.1 112.19-10.1L112.19-10.1 98.09-10.1 98.09-13.55 110.94-13.55Q112.59-13.55 113.09-14.6 113.59-15.65 113.59-17L113.59-17Q113.54-19.25 112.27-20.2 110.99-21.15 107.89-21.15L107.89-21.15Q105.34-21.15 103.89-20.4 102.44-19.65 101.87-17.8 101.29-15.95 101.29-12.6L101.29-12.6Q101.29-8.85 102.02-6.88 102.74-4.9 104.37-4.15 105.99-3.4 108.69-3.4L108.69-3.4Q110.59-3.4 112.97-3.58 115.34-3.75 117.29-4L117.29-4 117.79-0.85Q116.59-0.35 114.89-0.03 113.19 0.3 111.39 0.45 109.59 0.6 108.09 0.6L108.09 0.6Q103.79 0.6 101.19-0.7 98.59-2 97.39-4.83 96.19-7.65 96.19-12.25L96.19-12.25Q96.19-17.05 97.39-19.85 98.59-22.65 101.14-23.83 103.69-25 107.69-25ZM124.54-35L129.34-35 129.29-6.95Q129.29-5.4 130.16-4.6 131.04-3.8 132.59-3.8L132.59-3.8 134.89-3.8 135.44-0.25Q134.94 0 134.06 0.15 133.19 0.3 132.26 0.38 131.34 0.45 130.69 0.45L130.69 0.45Q127.89 0.45 126.21-1.15 124.54-2.75 124.54-5.8L124.54-5.8 124.54-35Z" opacity="1" transform="matrix(1,0,0,1,0,0)" fill="#e63946" class="undefined-text-0" data-fill-palette-color="primary" id="text-0"></path></svg></g></svg></g></svg></g></svg></g><g><svg viewBox="0 0 167.47332807934959 145.00199391952313" height="145.00199391952313" width="167.47332807934959"><g><svg xmlns="http://www.w3.org/2000/svg" xmlns:xlink="http://www.w3.org/1999/xlink" version="1.1" x="0" y="0" viewBox="1.6000003814697266 8.999998092651367 95.4007339477539 82.5999984741211" style="enable-background:new 0 0 100 100;" xml:space="preserve" height="145.00199391952313" width="167.47332807934959" class="icon-icon-0" data-fill-palette-color="accent" id="icon-0"><path d="M48.2 69.1c0-14.5 11.8-26.3 26.3-26.3 6.6 0 12.6 2.4 17.3 6.5V26.8c0-2.9-2.3-5.2-5.2-5.2H66.5v-3.1c0-5.3-4.3-9.5-9.5-9.5H36.3c-5.3 0-9.5 4.3-9.5 9.5v3.1H6.8c-2.9 0-5.2 2.3-5.2 5.2v56.6c0 2.9 2.3 5.2 5.2 5.2h50C51.6 83.7 48.2 76.8 48.2 69.1zM32.6 18.5c0-2 1.7-3.7 3.7-3.7H57c2 0 3.7 1.7 3.7 3.7v3.1H32.6V18.5z" fill="#e63946" data-fill-palette-color="accent"></path><path d="M74.6 46.5C62.1 46.5 52 56.6 52 69.1c0 12.4 10.1 22.5 22.5 22.5 12.4 0 22.5-10.1 22.5-22.5C97.1 56.6 87 46.5 74.6 46.5zM57.8 69.2c-0.1-0.1-0.1-0.2-0.1-0.3 0-0.1 0.1-0.2 0.2-0.3l1-0.7c0.1-0.1 0.2-0.1 0.3-0.1l4.4 1.1c0.2 0 0.3 0.2 0.3 0.3 0 0.2-0.1 0.3-0.3 0.4l-3.4 1.1c0 0-0.1 0-0.1 0-0.1 0-0.2 0-0.2-0.1L57.8 69.2zM62.5 74.6l-2.4 0.8c0 0-0.1 0-0.1 0-0.2 0-0.3-0.1-0.4-0.3-0.1-0.2 0-0.4 0.2-0.5l2.4-0.8c0.2-0.1 0.4 0 0.5 0.2C62.8 74.3 62.7 74.5 62.5 74.6zM65.8 75l-2.4 0.8c0 0-0.1 0-0.1 0-0.2 0-0.3-0.1-0.4-0.3-0.1-0.2 0-0.4 0.2-0.5l2.4-0.8c0.2-0.1 0.4 0 0.5 0.2C66.1 74.7 66 74.9 65.8 75zM89.9 66.8l-0.2 0.1c0 0 0 0 0 0l-20.8 7c0 0-0.1 0-0.1 0 0 0-0.1 0-0.1 0l-7.3-1.6c-0.2 0-0.3-0.2-0.3-0.3 0-0.2 0.1-0.3 0.3-0.4l11.1-3.7-4-3.9c-0.1-0.1-0.1-0.2-0.1-0.3 0-0.1 0.1-0.2 0.1-0.3l1.2-1c0.1-0.1 0.2-0.1 0.3-0.1L81 65l7.2-2.4c0 0 0 0 0 0l0.2-0.1c0.2-0.1 0.5-0.1 0.7-0.1 1 0 1.8 0.6 2.2 1.6 0.2 0.6 0.2 1.2-0.1 1.7C91 66.2 90.5 66.6 89.9 66.8z" fill="#e63946" data-fill-palette-color="accent"></path></svg></g></svg></g></svg></g><defs></defs></svg><rect width="395.52" height="97.57538746892709" fill="none" stroke="none" visibility="hidden"></rect></g></svg></g></svg>